# xmcd CD database file
#
# Track frame offsets:
#	150
#	13652
#	29690
#	42927
#	59320
#	76372
#	90752
#	101154
#	121117
#	133732
#	147057
#	161237
#	176057
#
# Disc length: 2465 seconds
#
# Revision: 1
# Processed by: cddbd v1.4PL0 Copyright (c) Steve Scherf et al.
# Submitted via: CDex 1.40Beta8
#
DISCID=a9099f0d
DTITLE=Wendy DeWitt and Blue Saloon - Soul Shake
DYEAR=1900
DGENRE=Blues
TTITLE0=Never Miss A Chance
TTITLE1=These Hands
TTITLE2=Complaining
TTITLE3=Mr. Charles
TTITLE4=Walking
TTITLE5=I'll Get Mine
TTITLE6=Trouble
TTITLE7=Still In Love With You
TTITLE8=I Could Say
TTITLE9=Working To Forget
TTITLE10=What Do You Want
TTITLE11=So Good To Me
TTITLE12=Never Be Too Much
EXTD=ID3G: 0
EXTT0=
EXTT1=
EXTT2=
EXTT3=
EXTT4=
EXTT5=
EXTT6=
EXTT7=
EXTT8=
EXTT9=
EXTT10=
EXTT11=
EXTT12=
PLAYORDER=
